{"title":"Red Cliff I&amp;II [2009] 720p BRRip H264 AC3 - CODY","uid":7112120,"size":4572725258,"categoryP":"video","categoryS":"hd___movies","magnet":"?xt=urn:btih:6a46d322a0dbbecbd93a14dfb8f14104f8192fec&amp;dn=Red+Cliff+I%26amp%3BII+%5B2009%5D+720p+BRRip+H264+AC3+-+CODY&amp;tr=udp%3A%2F%2Ftracker.openbittorrent.com%3A80&amp;tr=udp%3A%2F%2Fopen.demonii.com%3A1337&amp;tr=udp%3A%2F%2Ftracker.coppersurfer.tk%3A6969&amp;tr=udp%3A%2F%2Fexodus.desync.com%3A6969","seeders":1,"leechers":0,"uploader":"CODYBOSS1969","files":9,"time":1332100219,"description":"General\nComplete name                            : Red Cliff I&amp;II [2009] 720p BRRip H264 AC3 - CODY.mp4\nFormat                                   : MPEG-4\nFormat profile                           : Base Media\nCodec ID                                 : isom\nFile size                                : 4.26 GiB\nDuration                                 : 4h 37mn\nOverall bit rate mode                    : Variable\nOverall bit rate                         : 2 200 Kbps\nEncoded date                             : UTC 2012-03-17 20:35:44\n\nVideo\nID                                       : 1\nFormat                                   : AVC\nFormat/Info                              : Advanced Video Codec\nFormat profile                           : &lt;a class=&quot;__cf_email__&quot; href=&quot;/cdn-cgi/l/email-protection&quot; data-cfemail=&quot;2a62434d426a661e041b&quot;&gt;[email&amp;#160;protected]&lt;/a&gt;&lt;script cf-hash='f9e31' type=&quot;text/javascript&quot;&gt;\n/* &lt;![CDATA[ */!function(){try{var t=&quot;currentScript&quot;in document?document.currentScript:function(){for(var t=document.getElementsByTagName(&quot;script&quot;),e=t.length;e--;)if(t[e].getAttribute(&quot;cf-hash&quot;))return t[e]}();if(t&amp;&amp;t.previousSibling){var e,r,n,i,c=t.previousSibling,a=c.getAttribute(&quot;data-cfemail&quot;);if(a){for(e=&quot;&quot;,r=parseInt(a.substr(0,2),16),n=2;a.length-n;n+=2)i=parseInt(a.substr(n,2),16)^r,e+=String.fromCharCode(i);e=document.createTextNode(e),c.parentNode.replaceChild(e,c)}}}catch(u){}}();/* ]]&gt; */&lt;/script&gt;\nFormat settings, CABAC                   : Yes\nFormat settings, ReFrames                : 4 frames\nCodec ID                                 : avc1\nCodec ID/Info                            : Advanced Video Coding\nDuration                                 : 4h 37mn\nBit rate mode                            : Variable\nBit rate                                 : 1 750 Kbps\nMaximum bit rate                         : 20.0 Mbps\nWidth                                    : 1 280 pixels\nHeight                                   : 544 pixels\nDisplay aspect ratio                     : 2.35:1\nFrame rate mode                          : Constant\nFrame rate                               : 24.000 fps\nColor space                              : YUV\nChroma subsampling                       : 4:2:0\nBit depth                                : 8 bits\nScan type                                : Progressive\nBits/(Pixel*Frame)                       : 0.105\nStream size                              : 3.39 GiB (80%)\nWriting library                          : x264 core 119 r2106 07efeb4\nEncoding settings                        : rc=2pass\n\nAudio\nID                                       : 2\nFormat                                   : AC-3\nFormat/Info                              : Audio Coding 3\nMode extension                           : CM (complete main)\nCodec ID                                 : ac-3\nDuration                                 : 4h 37mn\nBit rate mode                            : Constant\nBit rate                                 : 448 Kbps\nChannel(s)                               : 6 channels\nChannel positions                        : Front: L C R, Side: L R, LFE\nSampling rate                            : 48.0 KHz\nBit depth                                : 16 bits\nCompression mode                         : Lossy\nStream size                              : 888 MiB (20%)\n\n\nIMDB link:    Red Cliff I                 &lt;a href=&quot; http://www.imdb.com/title/tt0425637/&quot; rel=&quot;nofollow&quot; target=&quot;_NEW&quot;&gt; http://www.imdb.com/title/tt0425637/&lt;/a&gt;\n.             Red Clif II                 &lt;a href=&quot; http://www.imdb.com/title/tt1326972/&quot; rel=&quot;nofollow&quot; target=&quot;_NEW&quot;&gt; http://www.imdb.com/title/tt1326972/&lt;/a&gt;\n\n\nThis is Red Cliff 1 &amp; 2: International Version [Blu-ray] [2009] :\n\n &lt;a href=&quot; http://www.amazon.co.uk/Red-Cliff-International-Version-Blu-ray/dp/B0030A6ID0/ref=sr_1_2?s=dvd&amp;ie=UTF8&amp;qid=1332092797&amp;sr=1-2&quot; rel=&quot;nofollow&quot; target=&quot;_NEW&quot;&gt; http://www.amazon.co.uk/Red-Cliff-International-Version-Blu-ray/dp/B0030A6ID0/ref=sr_1_2?s=dvd&amp;ie=UTF8&amp;qid=1332092797&amp;sr=1-2&lt;/a&gt;\n\n\nSubtitles included                       : Arabic, English, Romanian, Russian, __________________                         Vietnamese\n\n\n\n\nPlease seed at least 1,5:1 . This way this torrent has a chance to survive !\n\n\n\nThanks . Enjoy !!\n\n","torrent":{"xt":"urn:btih:6a46d322a0dbbecbd93a14dfb8f14104f8192fec","amp;dn":"Red+Cliff+I%26amp%3BII+%5B2009%5D+720p+BRRip+H264+AC3+-+CODY","amp;tr":["udp%3A%2F%2Ftracker.openbittorrent.com%3A80","udp%3A%2F%2Fopen.demonii.com%3A1337","udp%3A%2F%2Ftracker.coppersurfer.tk%3A6969","udp%3A%2F%2Fexodus.desync.com%3A6969"],"infoHash":"6a46d322a0dbbecbd93a14dfb8f14104f8192fec","infoHashBuffer":{"type":"Buffer","data":[106,70,211,34,160,219,190,203,217,58,20,223,184,241,65,4,248,25,47,236]},"announce":[],"urlList":[]}}